<?xml version="1.0" encoding="UTF-8"?>
<svg id="_2" data-name="2" xmlns="http://www.w3.org/2000/svg" version="1.1" viewBox="0 0 800 800">
  <defs>
    <style>
      .cls-1 {
        fill: #fff;
        stroke-width: 0px;
      }
    </style>
  </defs>
  <path class="cls-1" d="M434.8,400c0,70.4,57.3,127.7,127.7,127.7s127.7-57.3,127.7-127.7c0-70.4-57.3-127.7-127.7-127.7-70.4,0-127.7,57.3-127.7,127.7Z"/>
  <path class="cls-1" d="M729,228.5c-43.8-43.8-104.7-71.1-171.5-71.1H242.6c-66.9,0-127.7,27.2-171.5,71.1C27.2,272.3,0,333.1,0,400c0,66.9,27.2,127.7,71,171.5,43.8,43.8,104.7,71.1,171.5,71.1h314.8c66.9,0,127.7-27.2,171.5-71.1,43.8-43.8,71.1-104.7,71-171.5,0-66.9-27.2-127.7-71-171.5ZM677.5,520.1c-30.8,30.8-73.1,49.7-120.1,49.8H242.6c-47,0-89.3-19-120.1-49.8-30.8-30.8-49.7-73.1-49.8-120.1,0-47,19-89.3,49.8-120.1,30.8-30.8,73.1-49.7,120.1-49.7h314.8c47,0,89.3,18.9,120.1,49.7,30.8,30.8,49.7,73.1,49.8,120.1,0,47-19,89.3-49.8,120.1Z"/>
</svg>